<?xml version="1.0" standalone="no"?>
<!DOCTYPE svg PUBLIC "-//W3C//DTD SVG 20010904//EN"
 "http://www.w3.org/TR/2001/REC-SVG-20010904/DTD/svg10.dtd">
<svg version="1.0" xmlns="http://www.w3.org/2000/svg"
 width="1080.000000pt" height="1080.000000pt" viewBox="0 0 1080.000000 1080.000000"
 preserveAspectRatio="xMidYMid meet">

<g transform="translate(0.000000,1080.000000) scale(0.100000,-0.100000)"
fill="#000000" stroke="none">
<path d="M9550 10498 c0 -274 0 -1005 0 -1015 0 -10 117 -13 550 -13 l550 0 0
555 0 555 -550 0 -550 0 0 -82z m790 -137 c0 -38 -5 -74 -12 -84 -15 -19 -82
-50 -283 -132 -77 -31 -146 -59 -153 -62 -10 -4 -12 14 -10 83 l3 88 75 33
c164 71 365 151 373 146 4 -2 7 -35 7 -72z m-5 -256 l0 -79 -34 -20 c-19 -11
-79 -38 -135 -61 l-101 -42 -5 -116 c-6 -132 -8 -135 -84 -161 -89 -29 -83
-41 -91 176 -7 171 -6 193 9 203 9 7 69 34 134 60 64 26 155 64 202 85 47 21
90 37 95 36 6 -2 10 -37 10 -81z"/>
<path d="M4588 9793 c6 -2 18 -2 25 0 6 3 1 5 -13 5 -14 0 -19 -2 -12 -5z"/>
<path d="M4670 9780 c19 -5 91 -20 160 -35 112 -24 175 -44 143 -45 -6 0 -74
11 -150 26 -76 14 -199 32 -273 39 -182 20 -551 19 -710 0 -540 -67 -1054
-279 -1515 -624 -118 -88 -143 -110 -294 -256 -563 -545 -972 -1322 -1155
-2191 -106 -505 -125 -1197 -46 -1724 65 -431 115 -645 235 -998 198 -587 464
-1078 829 -1532 136 -169 441 -472 606 -604 131 -104 373 -272 475 -330 183
-104 301 -164 499 -253 65 -29 102 -41 109 -34 6 6 17 5 31 -4 27 -17 253 -79
382 -104 164 -32 377 -52 570 -51 224 0 363 14 561 56 40 9 78 14 85 11 8 -3
5 -6 -6 -6 -10 -1 -55 -10 -100 -21 -45 -11 -135 -28 -200 -39 -65 -11 -125
-26 -134 -33 -20 -17 -493 -25 -567 -10 -27 6 -95 18 -150 27 -55 9 -131 23
-168 32 -37 8 -70 13 -73 10 -6 -6 6 -10 96 -31 65 -15 153 -30 265 -47 76
-11 249 -19 485 -23 144 -2 211 1 305 16 409 64 756 168 1080 322 109 52 305
160 340 188 6 4 44 32 85 62 106 78 120 89 189 154 34 31 67 62 74 68 12 10
44 46 207 233 68 78 115 137 235 295 22 29 47 63 55 76 8 12 22 32 31 44 52
68 211 316 279 436 89 154 200 374 262 514 52 121 159 412 178 485 5 20 22 90
39 156 76 296 105 587 91 892 -5 98 -11 279 -15 403 -8 318 -33 590 -71 805
-9 50 -20 113 -24 140 -19 123 -55 287 -85 390 -8 28 -26 91 -39 140 -68 243
-190 554 -321 816 -119 238 -216 397 -397 652 -190 268 -504 594 -768 797 -25
19 -47 37 -50 41 -28 34 -362 230 -553 325 -348 174 -664 278 -1025 338 -95
16 -154 20 -92 6z m370 -90 c0 -13 -11 -13 -30 0 -12 8 -11 10 8 10 12 0 22
-4 22 -10z m355 -180 c3 -6 -1 -7 -9 -4 -18 7 -21 14 -7 14 6 0 13 -4 16 -10z
m180 -84 c151 -78 308 -173 402 -243 40 -30 73 -56 73 -58 0 -2 -48 28 -107
67 -191 126 -253 162 -443 260 -52 27 -84 46 -70 43 14 -4 79 -35 145 -69z
m375 -181 c7 -9 8 -15 2 -15 -5 0 -12 7 -16 15 -3 8 -4 15 -2 15 2 0 9 -7 16
-15z m84 -53 c22 -14 43 -27 46 -27 14 -1 294 -216 331 -253 14 -15 62 -61
107 -102 45 -41 82 -81 82 -87 0 -7 5 -13 11 -13 7 0 25 -15 42 -32 96 -104
140 -147 148 -142 5 3 9 -3 9 -13 0 -20 73 -123 96 -136 8 -4 14 -14 14 -20 0
-18 42 -52 61 -49 20 3 52 -41 38 -55 -6 -6 2 -24 21 -49 16 -21 30 -45 30
-51 0 -7 3 -13 8 -13 4 0 25 -29 47 -65 26 -43 46 -65 58 -65 12 0 17 -5 14
-13 -6 -17 25 -89 56 -132 13 -16 28 -41 35 -55 7 -14 21 -38 32 -55 11 -16
23 -37 26 -45 23 -54 49 -107 59 -120 6 -8 33 -62 59 -120 27 -58 59 -127 72
-155 43 -92 134 -313 134 -327 0 -7 7 -22 15 -32 8 -11 15 -29 15 -41 0 -12 3
-25 7 -29 4 -3 8 -12 9 -19 1 -7 12 -40 23 -73 28 -79 80 -265 92 -329 5 -27
14 -59 19 -70 5 -11 11 -38 15 -60 3 -22 12 -69 20 -105 8 -36 19 -99 25 -140
6 -41 15 -102 21 -135 5 -33 12 -82 14 -110 6 -69 14 -136 19 -160 26 -129 19
-727 -9 -852 -5 -20 -4 -33 2 -33 6 0 9 -10 8 -22 -1 -13 -3 -30 -4 -38 -1
-10 -4 -11 -12 -3 -6 6 -12 129 -14 349 -5 348 -21 583 -56 819 -11 72 -24
180 -30 240 -6 61 -19 130 -30 155 -10 25 -34 110 -54 190 -54 219 -156 542
-208 663 -54 122 -67 157 -67 175 0 12 -11 42 -25 68 -14 26 -25 53 -25 61 0
8 -4 11 -10 8 -10 -6 -14 6 -11 37 1 10 -5 28 -15 40 -9 13 -14 16 -11 8 17
-49 15 -49 -12 0 -33 60 -40 85 -15 54 15 -18 15 -18 4 3 -5 12 -16 26 -24 30
-13 8 -36 45 -36 58 0 3 5 3 10 0 6 -3 10 -2 10 3 0 11 -25 34 -31 28 -4 -5
-121 187 -153 251 -22 44 -260 369 -302 413 -19 20 -34 41 -34 46 0 17 -38 47
-50 39 -17 -10 -39 13 -33 35 4 15 -12 38 -58 86 -35 36 -71 76 -79 90 -8 13
-18 24 -22 24 -3 0 -48 40 -98 90 -51 49 -106 99 -123 112 -17 13 -56 46 -86
73 -53 48 -172 142 -247 194 -19 13 -34 31 -33 40 0 11 2 12 6 3 3 -7 24 -25
47 -40z m87 -119 c13 -16 12 -17 -3 -4 -10 7 -18 15 -18 17 0 8 8 3 21 -13z
m86 -65 c3 -7 -8 -2 -25 10 -17 13 -35 28 -39 34 -3 7 8 2 25 -10 17 -13 35
-28 39 -34z m703 -588 c0 -5 -5 -10 -11 -10 -5 0 -7 5 -4 10 3 6 8 10 11 10 2
0 4 -4 4 -10z m52 -64 c10 -19 10 -20 -6 -7 -9 8 -22 24 -28 35 -10 19 -10 20
6 7 9 -8 22 -24 28 -35z m8 -146 c0 -5 -2 -10 -4 -10 -3 0 -8 5 -11 10 -3 6
-1 10 4 10 6 0 11 -4 11 -10z m-1005 -540 c3 -5 -1 -10 -9 -10 -13 0 -16 -13
-16 -70 0 -40 -4 -70 -10 -70 -6 0 -10 29 -10 66 0 57 -3 67 -20 71 -11 3 -17
9 -14 14 7 12 71 11 79 -1z m165 -82 c0 -39 -4 -68 -10 -68 -5 0 -10 18 -10
40 0 22 -4 40 -9 40 -5 0 -11 -18 -15 -40 -8 -50 -31 -53 -40 -5 -10 50 -26
54 -26 6 0 -23 -4 -41 -10 -41 -6 0 -10 32 -10 75 0 68 2 75 20 75 14 0 22
-11 30 -40 6 -22 12 -40 15 -40 2 0 9 17 16 38 25 78 49 59 49 -40z m-2683
-93 c43 -18 59 -37 73 -87 15 -52 -2 -109 -41 -142 -28 -23 -39 -26 -115 -26
l-84 0 0 129 c0 146 -5 138 83 140 26 0 64 -6 84 -14z m203 -57 c0 -35 3 -93
7 -130 5 -57 3 -68 -9 -68 -9 0 -18 13 -22 31 -8 40 -8 177 0 207 12 42 24 22
24 -40z m352 43 c3 -3 8 -15 10 -25 4 -26 -22 -33 -29 -7 -5 19 -12 21 -89 21
l-83 0 -7 -36 c-4 -21 -3 -67 2 -103 l9 -66 85 0 85 0 0 40 c0 40 0 40 -42 43
-28 2 -43 8 -43 17 0 7 8 12 18 10 9 -2 36 -4 60 -4 l42 -1 0 -58 c0 -32 -5
-63 -12 -70 -8 -8 -47 -12 -109 -12 -78 0 -99 3 -110 17 -21 24 -20 230 1 244
16 10 200 2 212 -10z m160 -118 c3 -71 4 -131 1 -135 -2 -4 -10 -5 -18 -1 -12
4 -15 28 -15 118 0 62 3 120 6 129 15 38 22 8 26 -111z m323 107 c17 -14 20
-40 5 -40 -5 0 -13 7 -18 15 -7 13 -24 15 -83 13 l-74 -3 0 -35 0 -35 84 -7
c46 -4 88 -11 94 -17 5 -5 12 -32 15 -59 6 -69 -9 -82 -103 -82 -94 0 -125 11
-125 45 0 30 16 33 23 4 5 -19 11 -20 89 -17 l83 4 3 42 3 42 -79 0 c-47 0
-85 5 -95 13 -22 16 -32 74 -18 110 l11 28 85 -4 c48 -2 91 -9 100 -17z m333
4 c34 -10 3 -19 -70 -19 l-83 0 -3 -42 c-3 -46 -5 -45 67 -47 19 -1 36 -7 38
-13 3 -10 -11 -13 -51 -13 l-56 0 0 -39 c0 -22 4 -42 9 -46 6 -3 46 -8 90 -12
55 -4 81 -10 81 -19 0 -9 -25 -12 -93 -12 -52 0 -99 3 -105 7 -12 7 -16 64
-13 193 1 61 3 67 24 71 23 4 142 -2 165 -9z m232 -94 c51 -55 96 -100 101
-100 4 0 8 41 8 91 0 87 4 109 16 97 3 -3 8 -62 10 -132 4 -97 2 -126 -7 -126
-7 0 -53 45 -101 100 -49 55 -92 100 -98 100 -5 0 -9 -45 -9 -101 0 -76 -3
-100 -12 -97 -15 5 -24 268 -10 268 5 0 51 -45 102 -100z m475 70 c19 -16 19
-40 0 -40 -8 0 -15 6 -15 14 0 11 -19 15 -76 18 -42 2 -80 0 -86 -3 -5 -3 -8
-21 -6 -40 l3 -34 86 -6 c47 -3 91 -9 97 -13 16 -10 16 -118 0 -134 -15 -15
-171 -16 -199 -2 -20 11 -27 60 -9 60 6 0 10 -6 10 -14 0 -21 30 -28 110 -24
l70 2 0 42 0 42 -86 3 c-98 4 -114 16 -114 80 0 61 19 72 117 66 46 -3 90 -11
98 -17z m294 14 c33 -4 61 -11 61 -15 0 -5 -42 -10 -92 -11 -91 -3 -93 -3 -93
-28 0 -49 12 -60 65 -60 38 0 50 -4 50 -15 0 -12 -13 -15 -55 -15 l-55 0 0
-44 0 -44 92 -8 c58 -6 93 -14 96 -21 3 -10 -23 -13 -106 -13 l-109 0 -6 34
c-9 53 -5 209 5 229 10 19 43 21 147 11z m880 -372 c0 -31 -4 -66 -8 -76 -4
-11 -7 15 -7 61 1 45 4 79 9 76 4 -2 7 -30 6 -61z m-49 -16 c0 -14 -5 -28 -10
-31 -13 -8 -24 20 -16 40 9 24 26 17 26 -9z m-1297 -1954 c10 -10 24 -42 33
-71 16 -56 13 -94 -13 -145 -14 -27 -17 -28 -28 -13 -7 9 -17 17 -24 17 -35 0
-34 122 1 160 17 18 19 26 9 46 -13 28 -1 32 22 6z m-2213 -277 c6 -8 14 -32
17 -53 6 -48 -14 -72 -63 -72 -32 0 -34 -2 -34 -34 0 -38 -17 -57 -31 -35 -5
8 -9 58 -9 112 l0 97 54 0 c35 0 58 -5 66 -15z m144 -67 c11 -15 16 -45 16
-85 0 -63 0 -63 -28 -61 -15 1 -33 -1 -39 -5 -16 -10 -53 27 -53 52 0 25 26
51 50 51 24 0 36 18 21 33 -8 8 -18 7 -36 -3 -32 -17 -44 -6 -20 20 24 27 70
26 89 -2z m2063 -36 c6 -4 18 -33 26 -65 23 -87 26 -86 42 16 6 35 28 58 42
44 3 -4 11 -32 17 -64 7 -32 16 -57 21 -56 5 1 14 26 20 55 7 39 15 54 28 56
17 3 18 -1 12 -30 -15 -78 -38 -166 -45 -178 -15 -25 -37 -2 -44 47 -16 110
-30 119 -41 25 -13 -118 -43 -110 -73 19 -12 52 -25 104 -28 117 -6 22 2 28
23 14z m-435 -36 c10 3 30 -2 43 -10 23 -15 25 -23 25 -86 0 -56 -3 -70 -15
-70 -11 0 -15 12 -17 43 -3 73 -3 76 -15 88 -20 20 -30 1 -38 -65 -5 -50 -10
-64 -21 -59 -10 4 -14 22 -14 64 0 45 -4 61 -16 66 -24 9 -34 -15 -34 -79 0
-47 -3 -56 -15 -52 -12 5 -15 24 -15 84 l0 79 33 3 c17 2 43 0 56 -5 13 -4 32
-5 43 -1z m295 -32 c18 -27 14 -145 -4 -152 -9 -2 -13 9 -13 36 0 66 -11 102
-30 102 -23 0 -31 -23 -25 -68 6 -37 -7 -73 -21 -59 -4 4 -10 34 -12 67 -3 41
-9 61 -20 65 -22 8 -27 -1 -32 -68 -7 -89 -24 -77 -28 20 l-3 83 87 -2 c77 -2
88 -4 101 -24z m485 -21 c10 -9 18 -22 18 -30 0 -18 -26 -17 -34 2 -9 24 -45
18 -52 -9 -14 -57 22 -111 50 -73 16 21 36 22 36 2 0 -26 -39 -57 -63 -49 -40
12 -60 40 -61 87 -2 74 58 114 106 70z m2242 -165 c10 -41 7 -71 -8 -65 -11 4
-13 -9 -10 -66 1 -39 -1 -65 -6 -58 -4 8 -13 10 -19 6 -8 -4 -9 -11 -2 -19 6
-6 8 -32 5 -56 -4 -25 -7 -54 -8 -65 -5 -44 -19 -101 -28 -112 -5 -7 -7 -16
-4 -21 6 -10 -35 -188 -64 -277 -11 -33 -33 -100 -49 -150 -15 -49 -34 -106
-41 -125 -7 -19 -22 -60 -33 -90 -10 -30 -27 -73 -37 -95 -10 -22 -21 -50 -25
-62 -3 -13 -11 -23 -16 -23 -5 0 -9 -7 -9 -15 0 -15 -31 -87 -41 -95 -4 -3
-10 -19 -13 -37 -4 -17 -14 -34 -22 -37 -8 -3 -14 -15 -14 -26 0 -12 -11 -32
-24 -45 -13 -13 -22 -26 -19 -28 6 -6 -22 -60 -40 -79 -7 -7 -30 -44 -52 -83
-21 -38 -40 -64 -43 -57 -2 7 3 21 12 31 9 10 16 21 16 25 0 4 22 48 49 97 28
49 53 99 57 112 4 12 14 33 23 46 8 13 16 29 17 35 1 6 28 72 59 146 152 354
283 817 330 1165 9 66 18 126 20 133 7 20 32 14 39 -10z m-5459 -132 c157 -77
267 -270 268 -471 2 -248 -123 -436 -318 -476 -52 -10 -68 -10 -120 5 -152 44
-275 179 -320 353 -20 77 -20 244 1 314 43 145 146 265 255 298 64 19 168 9
234 -23z m1198 -71 c132 -66 235 -221 264 -396 14 -82 14 -102 1 -183 -28
-167 -112 -292 -237 -353 -76 -37 -193 -39 -261 -4 -127 65 -219 178 -265 322
-30 95 -34 230 -10 324 34 129 119 241 227 298 48 25 61 27 139 24 70 -2 96
-8 142 -32z m1335 -85 c108 -58 205 -182 248 -319 8 -25 18 -89 21 -141 10
-168 -39 -304 -147 -410 -73 -71 -143 -100 -243 -100 -56 0 -84 6 -126 25 -83
39 -147 91 -196 159 -56 79 -80 136 -101 238 -46 229 48 454 233 557 56 30 62
32 153 28 86 -2 101 -6 158 -37z m1274 -68 c178 -88 288 -280 288 -502 0 -152
-52 -288 -144 -379 -162 -159 -377 -152 -547 18 -72 73 -109 133 -142 231 -18
53 -22 87 -21 185 0 105 4 128 27 188 54 138 145 235 260 278 81 30 196 22
279 -19z m1015 -1460 c-10 -10 -17 -23 -17 -28 0 -5 -12 -22 -26 -39 l-26 -30
28 50 c15 28 29 53 31 58 2 4 9 7 15 7 6 0 4 -8 -5 -18z m-4402 -73 c14 -5 1
-8 -37 -8 -54 -1 -58 -3 -58 -25 0 -18 7 -25 30 -29 17 -4 30 -11 30 -17 0 -5
-13 -10 -30 -10 -28 0 -30 -3 -30 -35 0 -24 -5 -35 -15 -35 -12 0 -15 17 -15
90 l0 89 53 -6 c28 -3 61 -10 72 -14z m163 -89 c32 -70 37 -90 25 -90 -8 0
-17 8 -20 19 -3 14 -17 20 -51 24 -40 5 -50 3 -65 -15 -29 -34 -32 -12 -7 50
29 71 49 102 65 102 6 0 30 -40 53 -90z m122 1 c0 -76 4 -81 65 -81 40 0 45
11 45 93 0 42 3 58 10 51 6 -6 10 -44 8 -90 l-3 -79 -65 3 c-36 2 -71 8 -77
14 -8 7 -13 37 -13 84 0 59 3 74 15 74 12 0 15 -14 15 -69z m309 53 c17 -4 31
-11 31 -17 0 -5 -20 -34 -45 -63 -25 -28 -45 -54 -45 -57 0 -3 23 -10 50 -17
54 -13 71 -37 19 -26 -17 3 -51 6 -75 6 -57 0 -57 14 1 81 24 28 42 56 39 60
-2 5 -21 11 -42 15 -30 6 -33 8 -17 15 26 10 45 10 84 3z m256 -46 c9 -13 27
-38 39 -56 l24 -33 36 51 c20 27 40 50 46 50 6 0 10 -37 10 -90 0 -49 -4 -90
-9 -90 -11 0 -21 36 -21 78 0 41 -9 40 -39 -3 -13 -19 -26 -35 -30 -35 -3 0
-16 18 -29 40 -12 22 -27 40 -32 40 -6 0 -10 -22 -10 -50 0 -27 -4 -50 -10
-50 -6 0 -10 35 -10 85 0 88 7 101 35 63z m3455 1 c-7 -11 -14 -18 -17 -15 -3
3 0 12 7 21 18 21 23 19 10 -6z m-3122 -5 c28 -4 52 -11 52 -16 0 -6 -20 -7
-50 -3 -57 8 -70 3 -63 -25 4 -14 14 -20 34 -20 19 0 29 -5 29 -15 0 -10 -10
-15 -30 -15 -25 0 -30 -4 -30 -25 0 -22 4 -25 34 -25 42 0 89 -17 82 -29 -6
-9 -136 -4 -146 6 -4 4 -4 37 -1 136 1 41 1 41 89 31z m284 -37 c20 -31 -3
-51 -26 -23 -6 7 -30 16 -53 19 l-43 5 0 -64 0 -64 50 0 c28 0 50 5 50 10 0 6
7 10 15 10 21 0 19 -37 -4 -49 -10 -6 -42 -8 -70 -4 -68 8 -79 25 -73 117 l4
68 71 -7 c40 -4 75 -12 79 -18z m118 -26 c0 -37 3 -38 65 -42 50 -3 50 -3 53
29 2 20 8 32 15 29 8 -2 13 -35 15 -91 2 -68 0 -87 -10 -84 -7 3 -15 22 -18
44 l-5 39 -57 3 -58 3 0 -41 c0 -29 -4 -40 -12 -38 -9 3 -14 33 -16 91 -2 73
0 87 13 87 10 0 15 -10 15 -29z m370 -88 c22 -47 40 -87 40 -89 0 -13 -30 -1
-35 15 -11 36 -107 44 -125 11 -12 -23 -30 -27 -30 -6 0 8 16 48 36 89 46 97
59 95 114 -20z m184 17 c31 -34 61 -58 67 -55 5 4 9 27 7 52 -2 30 1 47 10 50
9 4 12 -18 12 -86 0 -50 -4 -91 -8 -91 -5 0 -37 29 -72 65 -34 36 -65 64 -67
61 -3 -3 -5 -30 -4 -61 0 -40 -3 -55 -12 -52 -8 2 -13 33 -15 90 -3 107 4 110
82 27z m2046 30 c-6 -11 -13 -20 -16 -20 -2 0 0 9 6 20 6 11 13 20 16 20 2 0
0 -9 -6 -20z m-1830 -86 c0 -68 -3 -84 -15 -84 -12 0 -15 16 -15 83 0 46 3 87
6 90 17 16 24 -11 24 -89z m243 69 c10 -6 9 -41 -2 -48 -6 -3 -15 4 -21 15 -8
15 -21 20 -56 20 l-45 0 3 -62 3 -63 45 -2 c30 -1 47 3 53 13 13 24 29 16 25
-13 -3 -27 -5 -28 -63 -28 -95 1 -95 1 -95 101 l0 86 73 -7 c39 -4 75 -9 80
-12z m1615 -3 c-7 -10 -14 -17 -17 -15 -4 4 18 35 25 35 2 0 -1 -9 -8 -20z
m-1375 -17 c10 -6 9 -33 -2 -33 -6 0 -13 5 -16 10 -3 6 -28 10 -56 10 -41 0
-49 -3 -49 -19 0 -15 10 -20 60 -25 68 -8 77 -18 72 -76 l-4 -40 -53 0 c-63 0
-100 12 -109 35 -5 15 -1 16 26 11 118 -21 120 -21 116 5 -3 21 -10 25 -59 30
-31 3 -61 9 -68 13 -12 8 -15 78 -3 90 7 8 130 -2 145 -11z m1303 -21 c-18
-16 -18 -16 -6 6 6 13 14 21 18 18 3 -4 -2 -14 -12 -24z m-91 -122 c-3 -5 -11
-10 -16 -10 -6 0 -7 5 -4 10 3 6 11 10 16 10 6 0 7 -4 4 -10z m-55 -64 c0 -2
-8 -10 -17 -17 -16 -13 -17 -12 -4 4 13 16 21 21 21 13z m-236 -255 c-10 -10
-21 -17 -23 -15 -6 6 20 34 32 34 6 0 2 -8 -9 -19z m-234 -196 c-7 -9 -15 -13
-19 -10 -3 3 1 10 9 15 21 14 24 12 10 -5z m-55 -44 c-15 -25 -185 -141 -185
-127 0 5 182 136 188 136 2 0 1 -4 -3 -9z m-422 -272 c-5 -5 -39 -24 -74 -40
-75 -35 -68 -24 9 16 29 15 55 31 58 37 3 5 9 7 12 3 3 -3 1 -10 -5 -16z
m-167 -84 c-11 -8 -25 -15 -30 -15 -6 0 -2 7 8 15 11 8 25 15 30 15 6 0 2 -7
-8 -15z m-95 -41 c-29 -13 -56 -24 -60 -23 -9 1 93 49 104 48 6 0 -14 -11 -44
-25z m-101 -38 c0 -2 -9 -6 -20 -9 -11 -3 -18 -1 -14 4 5 9 34 13 34 5z"/>
<path d="M3318 7474 c-5 -4 -8 -49 -8 -100 0 -103 0 -104 88 -104 62 0 92 32
92 99 0 74 -28 103 -106 109 -32 2 -62 0 -66 -4z"/>
<path d="M3060 4795 c0 -19 2 -35 4 -35 2 0 11 -3 19 -6 14 -5 47 20 47 36 0
16 -31 40 -51 40 -15 0 -19 -7 -19 -35z"/>
<path d="M3213 4684 c-3 -8 -1 -20 4 -25 14 -14 43 0 43 22 0 24 -38 26 -47 3z"/>
<path d="M2225 4270 c-3 -5 -1 -10 4 -10 6 0 11 5 11 10 0 6 -2 10 -4 10 -3 0
-8 -4 -11 -10z"/>
<path d="M2158 4222 c-20 -20 -40 -50 -44 -67 -4 -16 -16 -48 -28 -70 -14 -28
-21 -59 -21 -105 0 -100 12 -214 24 -218 6 -2 11 -11 11 -19 0 -23 42 -93 52
-87 4 3 8 -3 8 -13 1 -25 24 -53 44 -53 9 0 16 -4 16 -10 0 -5 5 -10 10 -10 6
0 10 6 9 13 -3 27 2 34 24 30 18 -4 24 0 24 14 0 10 -4 23 -9 30 -6 7 -3 15 9
22 15 9 13 10 -12 6 -16 -3 -24 -2 -17 1 6 3 12 12 12 20 0 12 -4 12 -22 2
-13 -7 -25 -15 -28 -18 -10 -10 -30 -10 -30 0 0 5 -7 10 -15 10 -14 0 -21 30
-16 68 1 6 -2 12 -8 12 -5 0 -9 19 -9 43 -1 23 -4 58 -7 77 -16 84 -16 103 0
182 17 87 28 108 52 108 10 0 14 -7 10 -20 -3 -13 0 -20 9 -20 8 0 14 -7 14
-15 0 -8 -4 -15 -10 -15 -5 0 -10 5 -10 11 0 5 -4 7 -10 4 -18 -11 -10 -25 15
-25 20 0 25 5 25 25 0 17 6 25 18 26 59 4 84 3 89 -3 2 -5 -15 -9 -39 -9 l-43
-2 35 -6 c19 -4 42 -2 52 3 34 20 -2 75 -51 76 -13 0 -29 7 -35 16 -17 23 -44
8 -38 -22 2 -14 0 -24 -7 -24 -18 0 -25 31 -12 51 19 31 -1 21 -41 -19z m82
-568 c0 -8 -5 -12 -10 -9 -6 4 -8 11 -5 16 9 14 15 11 15 -7z"/>
<path d="M2270 4249 c0 -5 5 -7 10 -4 6 3 10 8 10 11 0 2 -4 4 -10 4 -5 0 -10
-5 -10 -11z"/>
<path d="M2240 4119 c0 -12 41 -18 63 -10 18 7 14 9 -20 12 -24 3 -43 2 -43
-2z"/>
<path d="M2270 4079 c0 -5 5 -7 10 -4 6 3 10 8 10 11 0 2 -4 4 -10 4 -5 0 -10
-5 -10 -11z"/>
<path d="M2152 4015 c0 -16 2 -22 5 -12 2 9 2 23 0 30 -3 6 -5 -1 -5 -18z"/>
<path d="M2281 4014 c0 -11 3 -14 6 -6 3 7 2 16 -1 19 -3 4 -6 -2 -5 -13z"/>
<path d="M2151 3964 c0 -11 3 -14 6 -6 3 7 2 16 -1 19 -3 4 -6 -2 -5 -13z"/>
<path d="M2320 3635 c0 -9 6 -12 15 -9 8 4 12 10 9 15 -8 14 -24 10 -24 -6z"/>
<path d="M3498 4223 c-34 -5 -47 -33 -15 -33 18 0 19 2 7 10 -12 8 -11 10 7
10 12 0 25 5 28 10 3 6 5 9 3 9 -2 -1 -15 -4 -30 -6z"/>
<path d="M3378 4185 c-23 -16 -39 -36 -43 -55 -4 -16 -10 -30 -13 -30 -10 0
-32 -51 -32 -72 0 -10 -7 -30 -17 -44 -28 -43 -22 -246 8 -304 11 -20 19 -28
19 -17 0 9 4 17 9 17 4 0 6 -11 4 -25 -3 -15 5 -41 22 -71 39 -67 56 -84 83
-84 19 0 23 4 19 20 -4 17 -1 19 24 16 16 -1 32 -6 36 -9 11 -12 23 -8 23 7 0
9 12 16 28 18 19 2 27 9 27 23 0 14 -8 21 -27 23 -30 4 -33 9 -19 31 6 9 11
10 15 2 4 -6 12 -11 19 -11 18 0 -6 20 -31 25 -15 2 -19 0 -15 -11 3 -8 0 -14
-6 -14 -6 0 -10 -3 -10 -7 4 -24 -4 -33 -30 -33 -31 0 -50 28 -35 51 5 8 1 8
-14 0 -30 -16 -32 -15 -33 27 -1 32 -2 34 -8 12 l-8 -25 -5 25 c-3 14 -5 4 -3
-22 1 -25 -2 -52 -7 -60 -7 -10 -8 -9 -4 5 3 11 0 17 -9 17 -13 0 -15 33 -15
220 0 198 2 220 18 229 9 6 12 11 5 11 -16 0 -5 30 12 30 9 0 11 -12 8 -43 -4
-33 -1 -46 12 -57 16 -14 17 -13 11 8 -7 21 -5 23 16 21 12 -2 28 -1 33 3 17
10 75 -4 75 -18 0 -8 5 -14 10 -14 6 0 10 5 10 10 0 6 7 10 15 10 8 0 15 5 15
10 0 6 -7 10 -15 10 -8 0 -15 9 -15 21 0 11 -4 17 -10 14 -5 -3 -10 3 -10 14
0 12 7 21 16 21 8 0 13 -4 10 -9 -3 -5 1 -12 9 -15 13 -4 13 -2 5 14 -5 10
-10 28 -10 39 0 19 -7 21 -57 23 l-58 1 45 7 c44 7 43 7 -20 9 -59 1 -63 3
-46 16 33 25 3 17 -36 -10z m19 -57 c-3 -8 -6 -5 -6 6 -1 11 2 17 5 13 3 -3 4
-12 1 -19z m-80 -350 c-3 -8 -6 -5 -6 6 -1 11 2 17 5 13 3 -3 4 -12 1 -19z"/>
<path d="M3371 3940 c0 -8 4 -24 9 -35 5 -13 9 -14 9 -5 0 8 -4 24 -9 35 -5
13 -9 14 -9 5z"/>
<path d="M4756 4131 c-4 -5 3 -7 14 -4 23 6 26 13 6 13 -8 0 -17 -4 -20 -9z"/>
<path d="M4787 4113 c-4 -3 -24 -10 -44 -14 l-38 -8 43 3 c43 4 60 11 50 21
-2 3 -8 2 -11 -2z"/>
<path d="M4665 4090 c-3 -5 -1 -10 4 -10 6 0 11 5 11 10 0 6 -2 10 -4 10 -3 0
-8 -4 -11 -10z"/>
<path d="M4780 4083 c-8 -4 -20 -13 -27 -22 -11 -14 -12 -14 -13 2 0 22 -19
22 -35 0 -11 -14 -16 -15 -28 -4 -23 19 -62 -21 -47 -49 12 -23 13 -40 1 -21
-8 12 -11 12 -23 0 -31 -32 -52 -101 -51 -169 0 -38 -3 -67 -8 -64 -31 19 45
-211 85 -258 9 -10 13 -18 9 -18 -3 0 6 -11 21 -25 30 -28 48 -33 40 -10 -5
12 3 15 32 16 38 1 38 2 9 9 -16 4 -22 8 -12 9 32 2 9 18 -28 19 -45 2 -55 8
-55 33 0 15 7 19 38 20 l37 1 -38 8 c-20 4 -41 11 -45 15 -4 5 1 5 10 2 10 -3
20 -2 23 3 4 6 1 10 -6 10 -13 0 -11 9 20 90 25 64 26 72 6 46 -15 -19 -15
-19 -15 1 0 12 5 23 11 25 7 2 11 24 11 50 -1 37 4 51 23 70 14 13 25 31 25
40 0 9 5 20 11 24 6 3 9 19 7 35 -3 16 -1 29 3 29 4 0 10 19 14 41 4 25 10 37
15 29 5 -8 9 -7 13 4 7 16 -5 19 -33 9z m-120 -58 c0 -8 -4 -15 -10 -15 -5 0
-10 7 -10 15 0 8 5 15 10 15 6 0 10 -7 10 -15z m20 -351 c0 -8 -5 -12 -10 -9
-6 4 -8 11 -5 16 9 14 15 11 15 -7z m30 -194 c0 -5 -7 -10 -15 -10 -8 0 -15 5
-15 10 0 6 7 10 15 10 8 0 15 -4 15 -10z"/>
<path d="M4736 3825 c-9 -26 -7 -32 5 -12 6 10 9 21 6 23 -2 3 -7 -2 -11 -11z"/>
<path d="M4808 3483 c7 -3 16 -2 19 1 4 3 -2 6 -13 5 -11 0 -14 -3 -6 -6z"/>
<path d="M4720 3441 c0 -4 11 -6 25 -3 14 2 25 6 25 8 0 2 -11 4 -25 4 -14 0
-25 -4 -25 -9z"/>
<path d="M6000 4049 c-35 -16 -41 -22 -30 -30 12 -8 11 -9 -5 -5 -16 5 -23 -1
-33 -27 -10 -26 -14 -29 -23 -17 -10 13 -10 13 -6 0 3 -8 8 -22 12 -31 5 -13
1 -16 -23 -13 -32 4 -53 -17 -66 -66 -5 -20 -3 -18 10 7 18 34 44 51 44 30 0
-7 -7 -23 -16 -35 -8 -12 -12 -22 -8 -22 3 0 -1 -11 -10 -25 -9 -13 -16 -32
-16 -42 0 -15 -2 -16 -11 -3 -9 14 -7 -22 7 -87 2 -13 0 -23 -5 -23 -6 0 -14
24 -17 53 -6 43 -9 48 -15 27 -20 -69 -2 -211 30 -240 20 -18 81 -108 81 -119
0 -13 78 -52 84 -42 3 5 16 6 29 4 16 -3 24 0 24 10 0 9 -8 13 -21 11 -12 -3
-15 -1 -8 2 10 5 10 9 1 20 -9 11 -8 14 2 14 10 0 10 3 1 12 -16 16 -16 41 1
32 6 -4 2 4 -10 17 -44 48 -56 117 -23 126 11 3 20 13 19 22 0 10 -2 11 -6 4
-8 -21 -18 -15 -19 12 -2 22 1 25 20 20 19 -5 19 -5 5 7 -10 8 -22 34 -28 58
l-11 45 5 -40 c3 -28 2 -35 -5 -25 -13 21 -12 68 1 72 6 2 11 21 11 42 0 22 3
34 8 27 10 -17 26 16 29 62 0 9 7 17 15 17 17 0 88 69 81 80 -2 4 -22 10 -44
14 -22 3 -43 11 -47 17 -6 11 10 8 55 -9 23 -9 2 18 -23 29 -19 8 -18 9 7 6
29 -5 37 7 11 17 -9 3 -16 6 -17 5 -1 0 -22 -9 -47 -20z m-43 -271 c-3 -7 -5
-2 -5 12 0 14 2 19 5 13 2 -7 2 -19 0 -25z m-160 -120 c-3 -8 -6 -5 -6 6 -1
11 2 17 5 13 3 -3 4 -12 1 -19z m33 -153 c0 -5 -5 -3 -10 5 -5 8 -10 20 -10
25 0 6 5 3 10 -5 5 -8 10 -19 10 -25z m160 -58 c0 -5 -7 -4 -15 3 -8 7 -15 20
-15 29 1 13 3 13 15 -3 8 -11 15 -24 15 -29z"/>
<path d="M2986 2544 c-13 -35 -7 -54 19 -54 27 0 32 18 15 51 -13 23 -26 24
-34 3z"/>
<path d="M4772 2395 c-18 -38 -15 -45 18 -45 17 0 30 2 30 5 0 8 -30 65 -34
65 -1 0 -8 -11 -14 -25z"/>
<path d="M3685 1120 c11 -5 27 -9 35 -9 13 -1 13 0 0 9 -8 5 -24 9 -35 9 l-20
0 20 -9z"/>
<path d="M3990 504 c-25 -7 -57 -13 -72 -13 -17 -1 -28 -7 -28 -15 0 -34 278
-56 765 -60 466 -4 801 13 930 46 33 8 36 11 21 20 -10 5 -52 16 -94 23 -64
11 -88 11 -156 -1 -378 -66 -609 -69 -1081 -14 -242 29 -236 28 -285 14z"/>
</g>
</svg>
